<svg width="24" height="24" viewBox="0 0 24 24" fill="none" xmlns="http://www.w3.org/2000/svg">
<path d="M16.875 1.3125C17.1857 1.3125 17.4375 1.56427 17.4375 1.875V13.125C17.4375 13.4357 17.1857 13.6875 16.875 13.6875C16.5643 13.6875 16.3125 13.4357 16.3125 13.125V2.4375H7.6875V13.125C7.6875 13.4357 7.43573 13.6875 7.125 13.6875C6.81427 13.6875 6.5625 13.4357 6.5625 13.125V1.875C6.5625 1.56427 6.81427 1.3125 7.125 1.3125H16.875Z" fill="white"/>
<path d="M16.875 1.3125C17.1857 1.3125 17.4375 1.56427 17.4375 1.875V13.125C17.4375 13.4357 17.1857 13.6875 16.875 13.6875C16.5643 13.6875 16.3125 13.4357 16.3125 13.125V2.4375H7.6875V13.125C7.6875 13.4357 7.43573 13.6875 7.125 13.6875C6.81427 13.6875 6.5625 13.4357 6.5625 13.125V1.875C6.5625 1.56427 6.81427 1.3125 7.125 1.3125H16.875Z" stroke="white"/>
<path d="M6.94141 6.59375C7.23602 6.49213 7.55615 6.64886 7.65723 6.94238C7.75808 7.23587 7.60199 7.55614 7.30859 7.65723L2.4375 9.33496V14.25C2.4375 14.5607 2.18573 14.8125 1.875 14.8125C1.56427 14.8125 1.3125 14.5607 1.3125 14.25V8.93457C1.3125 8.69461 1.46468 8.4806 1.69141 8.40234L6.94141 6.59375Z" fill="white"/>
<path d="M6.94141 6.59375C7.23602 6.49213 7.55615 6.64886 7.65723 6.94238C7.75808 7.23587 7.60199 7.55614 7.30859 7.65723L2.4375 9.33496V14.25C2.4375 14.5607 2.18573 14.8125 1.875 14.8125C1.56427 14.8125 1.3125 14.5607 1.3125 14.25V8.93457C1.3125 8.69461 1.46468 8.4806 1.69141 8.40234L6.94141 6.59375Z" stroke="white"/>
<path d="M16.3438 6.94189C16.4448 6.64838 16.7642 6.49146 17.0586 6.59326L22.3086 8.40186C22.5354 8.48008 22.6875 8.69408 22.6875 8.93408V14.2495C22.6875 14.5602 22.4357 14.812 22.125 14.812C21.8143 14.812 21.5625 14.5602 21.5625 14.2495V9.33447L16.6914 7.65674C16.398 7.55557 16.2427 7.23543 16.3438 6.94189Z" fill="white"/>
<path d="M16.3438 6.94189C16.4448 6.64838 16.7642 6.49146 17.0586 6.59326L22.3086 8.40186C22.5354 8.48008 22.6875 8.69408 22.6875 8.93408V14.2495C22.6875 14.5602 22.4357 14.812 22.125 14.812C21.8143 14.812 21.5625 14.5602 21.5625 14.2495V9.33447L16.6914 7.65674C16.398 7.55557 16.2427 7.23543 16.3438 6.94189Z" stroke="white"/>
<path d="M9.375 6.1875C9.68573 6.1875 9.9375 6.43927 9.9375 6.75V7.875C9.9375 8.18573 9.68573 8.4375 9.375 8.4375C9.06427 8.4375 8.8125 8.18573 8.8125 7.875V6.75C8.8125 6.43927 9.06427 6.1875 9.375 6.1875Z" fill="white"/>
<path d="M9.375 6.1875C9.68573 6.1875 9.9375 6.43927 9.9375 6.75V7.875C9.9375 8.18573 9.68573 8.4375 9.375 8.4375C9.06427 8.4375 8.8125 8.18573 8.8125 7.875V6.75C8.8125 6.43927 9.06427 6.1875 9.375 6.1875Z" stroke="white"/>
<path d="M4.5 9.9375C4.81073 9.9375 5.0625 10.1893 5.0625 10.5V11.625C5.0625 11.9357 4.81073 12.1875 4.5 12.1875C4.18927 12.1875 3.9375 11.9357 3.9375 11.625V10.5C3.9375 10.1893 4.18927 9.9375 4.5 9.9375Z" fill="white"/>
<path d="M4.5 9.9375C4.81073 9.9375 5.0625 10.1893 5.0625 10.5V11.625C5.0625 11.9357 4.81073 12.1875 4.5 12.1875C4.18927 12.1875 3.9375 11.9357 3.9375 11.625V10.5C3.9375 10.1893 4.18927 9.9375 4.5 9.9375Z" stroke="white"/>
<path d="M19.5 9.9375C19.8107 9.9375 20.0625 10.1893 20.0625 10.5V11.625C20.0625 11.9357 19.8107 12.1875 19.5 12.1875C19.1893 12.1875 18.9375 11.9357 18.9375 11.625V10.5C18.9375 10.1893 19.1893 9.9375 19.5 9.9375Z" fill="white"/>
<path d="M19.5 9.9375C19.8107 9.9375 20.0625 10.1893 20.0625 10.5V11.625C20.0625 11.9357 19.8107 12.1875 19.5 12.1875C19.1893 12.1875 18.9375 11.9357 18.9375 11.625V10.5C18.9375 10.1893 19.1893 9.9375 19.5 9.9375Z" stroke="white"/>
<path d="M12 6.1875C12.3107 6.1875 12.5625 6.43927 12.5625 6.75V7.875C12.5625 8.18573 12.3107 8.4375 12 8.4375C11.6893 8.4375 11.4375 8.18573 11.4375 7.875V6.75C11.4375 6.43927 11.6893 6.1875 12 6.1875Z" fill="white"/>
<path d="M12 6.1875C12.3107 6.1875 12.5625 6.43927 12.5625 6.75V7.875C12.5625 8.18573 12.3107 8.4375 12 8.4375C11.6893 8.4375 11.4375 8.18573 11.4375 7.875V6.75C11.4375 6.43927 11.6893 6.1875 12 6.1875Z" stroke="white"/>
<path d="M14.625 6.1875C14.9357 6.1875 15.1875 6.43927 15.1875 6.75V7.875C15.1875 8.18573 14.9357 8.4375 14.625 8.4375C14.3143 8.4375 14.0625 8.18573 14.0625 7.875V6.75C14.0625 6.43927 14.3143 6.1875 14.625 6.1875Z" fill="white"/>
<path d="M14.625 6.1875C14.9357 6.1875 15.1875 6.43927 15.1875 6.75V7.875C15.1875 8.18573 14.9357 8.4375 14.625 8.4375C14.3143 8.4375 14.0625 8.18573 14.0625 7.875V6.75C14.0625 6.43927 14.3143 6.1875 14.625 6.1875Z" stroke="white"/>
<path d="M9.375 3.1875C9.68573 3.1875 9.9375 3.43927 9.9375 3.75V4.875C9.9375 5.18573 9.68573 5.4375 9.375 5.4375C9.06427 5.4375 8.8125 5.18573 8.8125 4.875V3.75C8.8125 3.43927 9.06427 3.1875 9.375 3.1875Z" fill="white"/>
<path d="M9.375 3.1875C9.68573 3.1875 9.9375 3.43927 9.9375 3.75V4.875C9.9375 5.18573 9.68573 5.4375 9.375 5.4375C9.06427 5.4375 8.8125 5.18573 8.8125 4.875V3.75C8.8125 3.43927 9.06427 3.1875 9.375 3.1875Z" stroke="white"/>
<path d="M12 3.1875C12.3107 3.1875 12.5625 3.43927 12.5625 3.75V4.875C12.5625 5.18573 12.3107 5.4375 12 5.4375C11.6893 5.4375 11.4375 5.18573 11.4375 4.875V3.75C11.4375 3.43927 11.6893 3.1875 12 3.1875Z" fill="white"/>
<path d="M12 3.1875C12.3107 3.1875 12.5625 3.43927 12.5625 3.75V4.875C12.5625 5.18573 12.3107 5.4375 12 5.4375C11.6893 5.4375 11.4375 5.18573 11.4375 4.875V3.75C11.4375 3.43927 11.6893 3.1875 12 3.1875Z" stroke="white"/>
<path d="M14.625 3.1875C14.9357 3.1875 15.1875 3.43927 15.1875 3.75V4.875C15.1875 5.18573 14.9357 5.4375 14.625 5.4375C14.3143 5.4375 14.0625 5.18573 14.0625 4.875V3.75C14.0625 3.43927 14.3143 3.1875 14.625 3.1875Z" fill="white"/>
<path d="M14.625 3.1875C14.9357 3.1875 15.1875 3.43927 15.1875 3.75V4.875C15.1875 5.18573 14.9357 5.4375 14.625 5.4375C14.3143 5.4375 14.0625 5.18573 14.0625 4.875V3.75C14.0625 3.43927 14.3143 3.1875 14.625 3.1875Z" stroke="white"/>
<path d="M9.375 9.1875C9.68573 9.1875 9.9375 9.43927 9.9375 9.75V10.875C9.9375 11.1857 9.68573 11.4375 9.375 11.4375C9.06427 11.4375 8.8125 11.1857 8.8125 10.875V9.75C8.8125 9.43927 9.06427 9.1875 9.375 9.1875Z" fill="white"/>
<path d="M9.375 9.1875C9.68573 9.1875 9.9375 9.43927 9.9375 9.75V10.875C9.9375 11.1857 9.68573 11.4375 9.375 11.4375C9.06427 11.4375 8.8125 11.1857 8.8125 10.875V9.75C8.8125 9.43927 9.06427 9.1875 9.375 9.1875Z" stroke="white"/>
<path d="M12 9.1875C12.3107 9.1875 12.5625 9.43927 12.5625 9.75V10.875C12.5625 11.1857 12.3107 11.4375 12 11.4375C11.6893 11.4375 11.4375 11.1857 11.4375 10.875V9.75C11.4375 9.43927 11.6893 9.1875 12 9.1875Z" fill="white"/>
<path d="M12 9.1875C12.3107 9.1875 12.5625 9.43927 12.5625 9.75V10.875C12.5625 11.1857 12.3107 11.4375 12 11.4375C11.6893 11.4375 11.4375 11.1857 11.4375 10.875V9.75C11.4375 9.43927 11.6893 9.1875 12 9.1875Z" stroke="white"/>
<path d="M14.625 9.1875C14.9357 9.1875 15.1875 9.43927 15.1875 9.75V10.875C15.1875 11.1857 14.9357 11.4375 14.625 11.4375C14.3143 11.4375 14.0625 11.1857 14.0625 10.875V9.75C14.0625 9.43927 14.3143 9.1875 14.625 9.1875Z" fill="white"/>
<path d="M14.625 9.1875C14.9357 9.1875 15.1875 9.43927 15.1875 9.75V10.875C15.1875 11.1857 14.9357 11.4375 14.625 11.4375C14.3143 11.4375 14.0625 11.1857 14.0625 10.875V9.75C14.0625 9.43927 14.3143 9.1875 14.625 9.1875Z" stroke="white"/>
<path d="M5.0625 14.3184C6.49105 14.3184 7.65325 15.4806 7.65332 16.9092C7.65332 18.3378 6.49109 19.5 5.0625 19.5C3.63397 19.4999 2.47168 18.3377 2.47168 16.9092C2.47175 15.4807 3.63401 14.3184 5.0625 14.3184ZM5.0625 15.4434C4.25419 15.4434 3.59675 16.1009 3.59668 16.9092C3.59668 17.7175 4.25415 18.3749 5.0625 18.375C5.87091 18.375 6.52832 17.7176 6.52832 16.9092C6.52825 16.1008 5.87087 15.4434 5.0625 15.4434Z" fill="white"/>
<path d="M5.0625 14.3184C6.49105 14.3184 7.65325 15.4806 7.65332 16.9092C7.65332 18.3378 6.49109 19.5 5.0625 19.5C3.63397 19.4999 2.47168 18.3377 2.47168 16.9092C2.47175 15.4807 3.63401 14.3184 5.0625 14.3184ZM5.0625 15.4434C4.25419 15.4434 3.59675 16.1009 3.59668 16.9092C3.59668 17.7175 4.25415 18.3749 5.0625 18.375C5.87091 18.375 6.52832 17.7176 6.52832 16.9092C6.52825 16.1008 5.87087 15.4434 5.0625 15.4434Z" stroke="white"/>
<path d="M5.0625 18.375C6.60509 18.375 8.01124 19.3415 8.56152 20.7803C8.67248 21.0703 8.52749 21.3959 8.2373 21.5068C7.94681 21.6179 7.62199 21.4726 7.51074 21.1826C7.12585 20.1765 6.14209 19.5 5.0625 19.5C3.80805 19.5 2.75623 20.3844 2.49805 21.5625H5.625C5.93573 21.5625 6.1875 21.8143 6.1875 22.125C6.1875 22.4357 5.93573 22.6875 5.625 22.6875H1.875C1.56427 22.6875 1.3125 22.4357 1.3125 22.125C1.3125 20.0572 2.99469 18.375 5.0625 18.375Z" fill="white"/>
<path d="M5.0625 18.375C6.60509 18.375 8.01124 19.3415 8.56152 20.7803C8.67248 21.0703 8.52749 21.3959 8.2373 21.5068C7.94681 21.6179 7.62199 21.4726 7.51074 21.1826C7.12585 20.1765 6.14209 19.5 5.0625 19.5C3.80805 19.5 2.75623 20.3844 2.49805 21.5625H5.625C5.93573 21.5625 6.1875 21.8143 6.1875 22.125C6.1875 22.4357 5.93573 22.6875 5.625 22.6875H1.875C1.56427 22.6875 1.3125 22.4357 1.3125 22.125C1.3125 20.0572 2.99469 18.375 5.0625 18.375Z" stroke="white"/>
<path d="M18.9375 14.3184C20.366 14.3184 21.5283 15.4806 21.5283 16.9092C21.5283 18.3378 20.3661 19.5 18.9375 19.5C17.509 19.4999 16.3467 18.3377 16.3467 16.9092C16.3467 15.4807 17.509 14.3184 18.9375 14.3184ZM18.9375 15.4434C18.1292 15.4434 17.4717 16.1009 17.4717 16.9092C17.4717 17.7175 18.1291 18.3749 18.9375 18.375C19.7459 18.375 20.4033 17.7176 20.4033 16.9092C20.4033 16.1008 19.7459 15.4434 18.9375 15.4434Z" fill="white"/>
<path d="M18.9375 14.3184C20.366 14.3184 21.5283 15.4806 21.5283 16.9092C21.5283 18.3378 20.3661 19.5 18.9375 19.5C17.509 19.4999 16.3467 18.3377 16.3467 16.9092C16.3467 15.4807 17.509 14.3184 18.9375 14.3184ZM18.9375 15.4434C18.1292 15.4434 17.4717 16.1009 17.4717 16.9092C17.4717 17.7175 18.1291 18.3749 18.9375 18.375C19.7459 18.375 20.4033 17.7176 20.4033 16.9092C20.4033 16.1008 19.7459 15.4434 18.9375 15.4434Z" stroke="white"/>
<path d="M18.937 18.375C21.0048 18.375 22.687 20.0572 22.687 22.125C22.687 22.4357 22.4352 22.6875 22.1245 22.6875H18.3745C18.0639 22.6873 17.812 22.4356 17.812 22.125C17.812 21.8144 18.0639 21.5627 18.3745 21.5625H21.5015C21.2433 20.3844 20.1915 19.5 18.937 19.5C17.8575 19.5001 16.8736 20.1765 16.4888 21.1826C16.3779 21.4726 16.0532 21.6177 15.7622 21.5068C15.4722 21.3958 15.3271 21.0702 15.438 20.7803C15.9882 19.3416 17.3945 18.3751 18.937 18.375Z" fill="white"/>
<path d="M18.937 18.375C21.0048 18.375 22.687 20.0572 22.687 22.125C22.687 22.4357 22.4352 22.6875 22.1245 22.6875H18.3745C18.0639 22.6873 17.812 22.4356 17.812 22.125C17.812 21.8144 18.0639 21.5627 18.3745 21.5625H21.5015C21.2433 20.3844 20.1915 19.5 18.937 19.5C17.8575 19.5001 16.8736 20.1765 16.4888 21.1826C16.3779 21.4726 16.0532 21.6177 15.7622 21.5068C15.4722 21.3958 15.3271 21.0702 15.438 20.7803C15.9882 19.3416 17.3945 18.3751 18.937 18.375Z" stroke="white"/>
<path d="M6.90332 3.60742C7.18815 3.48609 7.51932 3.61799 7.6416 3.90332C7.76392 4.18878 7.63135 4.5191 7.3457 4.6416L5.0625 5.62109V8.02832C5.0625 8.33905 4.81073 8.59082 4.5 8.59082C4.18927 8.59082 3.9375 8.33905 3.9375 8.02832V5.25C3.9375 5.02496 4.07141 4.82123 4.27832 4.73242L6.90332 3.60742Z" fill="white"/>
<path d="M6.90332 3.60742C7.18815 3.48609 7.51932 3.61799 7.6416 3.90332C7.76392 4.18878 7.63135 4.5191 7.3457 4.6416L5.0625 5.62109V8.02832C5.0625 8.33905 4.81073 8.59082 4.5 8.59082C4.18927 8.59082 3.9375 8.33905 3.9375 8.02832V5.25C3.9375 5.02496 4.07141 4.82123 4.27832 4.73242L6.90332 3.60742Z" stroke="white"/>
<path d="M16.3584 3.90332C16.4813 3.61798 16.8126 3.48599 17.0967 3.60742L19.7217 4.73242C19.9285 4.82126 20.0625 5.02501 20.0625 5.25V8.02832C20.0625 8.33899 19.8106 8.59072 19.5 8.59082C19.1893 8.59082 18.9375 8.33905 18.9375 8.02832V5.62109L16.6533 4.6416C16.3679 4.51897 16.2361 4.18865 16.3584 3.90332Z" fill="white"/>
<path d="M16.3584 3.90332C16.4813 3.61798 16.8126 3.48599 17.0967 3.60742L19.7217 4.73242C19.9285 4.82126 20.0625 5.02501 20.0625 5.25V8.02832C20.0625 8.33899 19.8106 8.59072 19.5 8.59082C19.1893 8.59082 18.9375 8.33905 18.9375 8.02832V5.62109L16.6533 4.6416C16.3679 4.51897 16.2361 4.18865 16.3584 3.90332Z" stroke="white"/>
<path d="M12 12.1875C13.7576 12.1875 15.1875 13.6174 15.1875 15.375C15.1875 17.1326 13.7576 18.5625 12 18.5625C10.2424 18.5625 8.8125 17.1326 8.8125 15.375C8.8125 13.6174 10.2424 12.1875 12 12.1875ZM12 13.3125C10.8627 13.3125 9.9375 14.2377 9.9375 15.375C9.9375 16.5123 10.8627 17.4375 12 17.4375C13.1373 17.4375 14.0625 16.5123 14.0625 15.375C14.0625 14.2377 13.1373 13.3125 12 13.3125Z" fill="white"/>
<path d="M12 12.1875C13.7576 12.1875 15.1875 13.6174 15.1875 15.375C15.1875 17.1326 13.7576 18.5625 12 18.5625C10.2424 18.5625 8.8125 17.1326 8.8125 15.375C8.8125 13.6174 10.2424 12.1875 12 12.1875ZM12 13.3125C10.8627 13.3125 9.9375 14.2377 9.9375 15.375C9.9375 16.5123 10.8627 17.4375 12 17.4375C13.1373 17.4375 14.0625 16.5123 14.0625 15.375C14.0625 14.2377 13.1373 13.3125 12 13.3125Z" stroke="white"/>
<path d="M12 17.4375C14.5847 17.4375 16.6875 19.5403 16.6875 22.125C16.6875 22.4357 16.4357 22.6875 16.125 22.6875H7.875C7.56427 22.6875 7.3125 22.4357 7.3125 22.125C7.3125 19.5403 9.41528 17.4375 12 17.4375ZM12 18.5625C10.227 18.5625 8.7519 19.8644 8.48145 21.5625H15.5186C15.2481 19.8644 13.773 18.5625 12 18.5625Z" fill="white"/>
<path d="M12 17.4375C14.5847 17.4375 16.6875 19.5403 16.6875 22.125C16.6875 22.4357 16.4357 22.6875 16.125 22.6875H7.875C7.56427 22.6875 7.3125 22.4357 7.3125 22.125C7.3125 19.5403 9.41528 17.4375 12 17.4375ZM12 18.5625C10.227 18.5625 8.7519 19.8644 8.48145 21.5625H15.5186C15.2481 19.8644 13.773 18.5625 12 18.5625Z" stroke="white"/>
</svg>
