<svg width="21" height="24" viewBox="0 0 21 24" fill="none" xmlns="http://www.w3.org/2000/svg">
<g clip-path="url(#clip0_2339_578)">
<path d="M10.5 0.849609C13.0194 0.849609 15.4006 1.22054 17.2051 1.89746L17.5596 2.03711C18.3627 2.37223 19.0044 2.76525 19.4619 3.20312C19.9858 3.70469 20.2744 4.27307 20.2744 4.88184C20.2743 5.49046 19.9857 6.05823 19.4619 6.55957C19.0045 6.99731 18.3626 7.38954 17.5596 7.72461L17.2051 7.86523C15.4006 8.54212 13.0189 8.91211 10.5 8.91211C8.13823 8.91209 5.89766 8.58667 4.13965 7.98828L3.79395 7.86523C2.82464 7.50139 2.06202 7.05979 1.53906 6.55957C1.01498 6.05816 0.724758 5.4904 0.724609 4.88184C0.724609 4.2731 1.01485 3.70477 1.53906 3.20312C2.062 2.70279 2.82464 2.26132 3.79395 1.89746L4.13965 1.77344C5.89764 1.17509 8.13831 0.849629 10.5 0.849609ZM10.5 2.00977C7.92908 2.00979 5.75433 2.40538 4.22754 2.97461C3.46344 3.25951 2.86781 3.58526 2.4668 3.9209C2.06265 4.25921 1.87695 4.58943 1.87695 4.88184C1.87715 5.17412 2.06286 5.5037 2.4668 5.8418C2.86781 6.1774 3.46344 6.50324 4.22754 6.78809C5.75433 7.3572 7.92911 7.75291 10.5 7.75293C13.071 7.75293 15.2457 7.35631 16.7725 6.78711C17.5365 6.50224 18.1322 6.17738 18.5332 5.8418C18.9372 5.50368 19.1228 5.17404 19.123 4.88184C19.123 4.58953 18.9374 4.25923 18.5332 3.9209C18.1322 3.58527 17.5365 3.25953 16.7725 2.97461C15.2457 2.40533 13.0707 2.00977 10.5 2.00977Z" fill="white" stroke="white" stroke-width="0.3"/>
<path d="M19.6992 9.04688C19.8523 9.04697 19.9986 9.109 20.1064 9.21777C20.2143 9.32658 20.2754 9.47362 20.2754 9.62695C20.2754 10.2359 19.9861 10.8041 19.4619 11.3057C19.0043 11.7435 18.3625 12.1356 17.5596 12.4707L17.2061 12.6113C15.4011 13.2883 13.0191 13.6582 10.5 13.6582C8.13824 13.6582 5.89766 13.3328 4.13965 12.7344L3.79395 12.6113C2.82467 12.2475 2.06202 11.8059 1.53906 11.3057C1.01483 10.8041 0.724609 10.2359 0.724609 9.62695C0.724609 9.47362 0.785659 9.32658 0.893555 9.21777C1.00142 9.109 1.1477 9.04697 1.30078 9.04688C1.45398 9.04688 1.60104 9.10892 1.70898 9.21777C1.81679 9.32656 1.87695 9.47369 1.87695 9.62695C1.87695 9.91891 2.06253 10.2486 2.4668 10.5869C2.86782 10.9225 3.46344 11.2482 4.22754 11.5332C5.75434 12.1026 7.92912 12.499 10.5 12.499C13.0709 12.499 15.2457 12.1026 16.7725 11.5332C17.5365 11.2482 18.1322 10.9225 18.5332 10.5869C18.9375 10.2486 19.123 9.91892 19.123 9.62695L19.1338 9.51367C19.1558 9.40249 19.2102 9.29938 19.291 9.21777C19.399 9.10892 19.546 9.04688 19.6992 9.04688Z" fill="white" stroke="white" stroke-width="0.3"/>
<path d="M19.6992 13.7925C19.8523 13.7926 19.9986 13.8546 20.1064 13.9634C20.2143 14.0722 20.2754 14.2192 20.2754 14.3726C20.2754 14.9815 19.9861 15.5497 19.4619 16.0513C19.0043 16.4891 18.3625 16.8812 17.5596 17.2163L17.2061 17.3569C15.401 18.0352 13.019 18.4038 10.5 18.4038C8.13824 18.4038 5.89766 18.0784 4.13965 17.48L3.79395 17.3569C2.82467 16.9931 2.06202 16.5515 1.53906 16.0513C1.01483 15.5497 0.724609 14.9815 0.724609 14.3726C0.724609 14.2192 0.785659 14.0722 0.893555 13.9634C1.00142 13.8546 1.1477 13.7926 1.30078 13.7925C1.45398 13.7925 1.60104 13.8545 1.70898 13.9634C1.81679 14.0722 1.87695 14.2193 1.87695 14.3726C1.87695 14.6649 2.06283 14.9943 2.4668 15.3325C2.86781 15.6682 3.46344 15.9939 4.22754 16.2788C5.75434 16.8481 7.92899 17.2446 10.5 17.2446C13.071 17.2446 15.2457 16.848 16.7725 16.2788C17.5365 15.9939 18.1322 15.6682 18.5332 15.3325C18.9372 14.9943 19.123 14.6649 19.123 14.3726L19.1338 14.2593C19.1558 14.1481 19.2102 14.045 19.291 13.9634C19.399 13.8545 19.546 13.7925 19.6992 13.7925Z" fill="white" stroke="white" stroke-width="0.3"/>
<path d="M19.6992 4.30127C19.8523 4.30136 19.9986 4.3634 20.1064 4.47217C20.2143 4.58097 20.2754 4.72801 20.2754 4.88135V19.1187C20.2754 19.7276 19.9861 20.2958 19.4619 20.7974C19.0043 21.2352 18.3625 21.6274 17.5596 21.9624L17.2061 22.1021C15.4011 22.7795 13.0191 23.1499 10.5 23.1499C8.13791 23.1499 5.89681 22.825 4.13867 22.2261L3.79395 22.1021C2.82478 21.7385 2.06199 21.2975 1.53906 20.7974C1.01484 20.2958 0.724621 19.7276 0.724609 19.1187V4.88135C0.724609 4.72801 0.785659 4.58097 0.893555 4.47217C1.00142 4.3634 1.1477 4.30136 1.30078 4.30127L1.41406 4.31299C1.52509 4.33533 1.62797 4.39048 1.70898 4.47217C1.81679 4.58096 1.87695 4.72808 1.87695 4.88135V19.1187C1.87697 19.411 2.06283 19.7404 2.4668 20.0786C2.86781 20.4143 3.46344 20.74 4.22754 21.0249C5.75434 21.5942 7.92899 21.9907 10.5 21.9907C13.071 21.9907 15.2457 21.5941 16.7725 21.0249C17.5365 20.74 18.1322 20.4143 18.5332 20.0786C18.9372 19.7404 19.123 19.411 19.123 19.1187V4.88135L19.1338 4.76807C19.1558 4.65688 19.2102 4.55377 19.291 4.47217C19.399 4.36332 19.546 4.30127 19.6992 4.30127Z" fill="white" stroke="white" stroke-width="0.3"/>
<path d="M17.6729 9.05859H17.6738L17.7549 9.08203C17.8078 9.10126 17.8581 9.12748 17.9033 9.16113L17.9668 9.2168L17.9688 9.21875L18.0391 9.30566L18.0928 9.40527L18.125 9.51367V9.51465L18.1357 9.62695C18.1357 9.66458 18.1322 9.70216 18.125 9.73926V9.74023C18.1176 9.77718 18.1071 9.81378 18.0928 9.84863H18.0918C18.0775 9.88301 18.0603 9.91608 18.04 9.94727L18.0391 9.94922L17.9678 10.0361C17.9408 10.0634 17.9108 10.0882 17.8789 10.1094L17.8779 10.1084C17.8472 10.1289 17.8153 10.1478 17.7812 10.1621H17.7803L17.6738 10.1953L17.5605 10.207H17.5596C17.5216 10.2069 17.4835 10.203 17.4463 10.1953V10.1943C17.4097 10.1868 17.3733 10.1765 17.3389 10.1621V10.1611C17.3043 10.1468 17.2713 10.1293 17.2402 10.1084V10.1094C17.1766 10.067 17.122 10.0122 17.0801 9.94824V9.94727L17.0283 9.84863C17.0141 9.81404 17.0025 9.77789 16.9951 9.74121L16.9834 9.62695C16.9834 9.58871 16.9874 9.55034 16.9951 9.5127H16.9961C17.0107 9.43863 17.0394 9.36759 17.0811 9.30469C17.1231 9.24145 17.1771 9.18667 17.2402 9.14453V9.14551C17.2713 9.12464 17.3043 9.10716 17.3389 9.09277V9.0918C17.3736 9.07729 17.4104 9.06609 17.4473 9.05859L17.5605 9.04688C17.5982 9.0469 17.6358 9.05109 17.6729 9.05859Z" fill="white" stroke="white" stroke-width="0.3"/>
<path d="M15.9614 9.48633L16.0688 9.51953L16.1685 9.57324L16.2563 9.64551C16.2827 9.6722 16.3059 9.70192 16.3267 9.7334H16.3276C16.3483 9.76471 16.366 9.79833 16.3804 9.83301L16.4136 9.94141L16.4243 10.0566L16.4136 10.1729L16.4126 10.1719C16.4053 10.2092 16.3951 10.2462 16.3804 10.2812L16.3794 10.2803C16.3651 10.3148 16.3481 10.3486 16.3276 10.3799L16.3267 10.3789C16.2848 10.4428 16.232 10.4987 16.1685 10.541L16.1675 10.54L16.0688 10.5938L15.9614 10.627C15.9245 10.6345 15.8868 10.6386 15.8491 10.6387H15.8481C15.8102 10.6386 15.7721 10.6346 15.7349 10.627V10.626C15.6983 10.6185 15.6619 10.6082 15.6274 10.5938V10.5928C15.5929 10.5784 15.5599 10.5609 15.5288 10.54V10.541C15.4969 10.5199 15.4678 10.495 15.4409 10.4678V10.4688C15.3871 10.4148 15.3457 10.3499 15.3169 10.2793L15.3159 10.2803L15.2837 10.1719C15.2761 10.1337 15.2717 10.0946 15.272 10.0557C15.2719 10.0174 15.2763 9.97891 15.2837 9.94141V9.94043L15.3159 9.83398V9.83301L15.3696 9.7334C15.3905 9.70195 15.4142 9.67241 15.4409 9.64551C15.4676 9.61837 15.4972 9.59344 15.5288 9.57227V9.57324C15.5599 9.55237 15.5929 9.53489 15.6274 9.52051V9.51953C15.6622 9.50503 15.699 9.49382 15.7358 9.48633L15.8481 9.47461C15.8861 9.47459 15.924 9.47872 15.9614 9.48633Z" fill="white" stroke="white" stroke-width="0.3"/>
<path d="M14.25 9.91992L14.3574 9.95312H14.3584L14.457 10.0059L14.459 10.0068L14.458 10.0078L14.5449 10.0781V10.0791L14.6162 10.167L14.6689 10.2666L14.6699 10.2676L14.7021 10.374V10.375L14.7129 10.4902L14.7021 10.6035C14.6948 10.6401 14.683 10.6755 14.6689 10.71L14.6699 10.7109C14.6558 10.7457 14.6368 10.7782 14.6162 10.8096L14.6172 10.8105C14.5963 10.8426 14.5719 10.8723 14.5449 10.8994V10.9004C14.5182 10.9272 14.4884 10.9507 14.457 10.9717V10.9727C14.426 10.9932 14.3927 11.0109 14.3584 11.0254H14.3574L14.25 11.0586L14.1367 11.0693L14.0215 11.0576C13.9849 11.0501 13.9486 11.0397 13.9141 11.0254V11.0244C13.8348 10.9917 13.7638 10.9423 13.707 10.8789L13.6553 10.8105L13.6025 10.7109L13.5703 10.6025C13.5629 10.5653 13.5585 10.5273 13.5586 10.4893C13.5585 10.4509 13.5629 10.4126 13.5703 10.375L13.5713 10.3701L13.6055 10.2666H13.6045C13.6333 10.1968 13.6756 10.1329 13.7285 10.0791L13.7305 10.0781L13.8164 10.0068H13.8174L13.916 9.95312H13.917L14.0234 9.91992L14.1367 9.9082C14.1747 9.90818 14.2126 9.91234 14.25 9.91992Z" fill="white" stroke="white" stroke-width="0.3"/>
<path d="M17.6729 13.8027L17.7812 13.8359C17.8153 13.8502 17.8471 13.869 17.8779 13.8896L17.8789 13.8887C17.9108 13.9098 17.9408 13.9347 17.9678 13.9619H17.9688L18.0391 14.0488L18.04 14.0508L18.0918 14.1494H18.0928L18.125 14.2578L18.1357 14.373L18.125 14.4863C18.1102 14.5606 18.0808 14.6312 18.0391 14.6943L17.9678 14.7822C17.941 14.8095 17.9116 14.8342 17.8799 14.8555L17.8789 14.8545C17.8479 14.8753 17.8155 14.8938 17.7812 14.9082L17.6729 14.9414C17.6356 14.9488 17.5976 14.9522 17.5596 14.9521L17.4473 14.9414C17.4104 14.9339 17.3736 14.9227 17.3389 14.9082V14.9072C17.3043 14.8928 17.2704 14.8764 17.2393 14.8555V14.8545C17.2077 14.8333 17.178 14.8094 17.1514 14.7822V14.7812C17.0444 14.6725 16.9838 14.5257 16.9834 14.373L16.9951 14.2578L17.0283 14.1494L17.0801 14.0508V14.0498L17.1514 13.9619H17.1523L17.2402 13.8887V13.8896C17.2713 13.8688 17.3043 13.8513 17.3389 13.8369V13.8359C17.3736 13.8214 17.4104 13.8102 17.4473 13.8027L17.5605 13.791C17.5982 13.791 17.6358 13.7952 17.6729 13.8027Z" fill="white" stroke="white" stroke-width="0.3"/>
<path d="M15.9614 14.2358L16.0688 14.269L16.1665 14.3228L16.1675 14.3218L16.2563 14.395L16.3276 14.4829L16.3286 14.4839L16.3794 14.5815H16.3804C16.3952 14.617 16.4063 14.6542 16.4136 14.6919H16.4126C16.4275 14.7658 16.4274 14.8416 16.4126 14.9155L16.4136 14.9165C16.4063 14.9542 16.3952 14.9914 16.3804 15.0269L16.3794 15.0259C16.3652 15.0601 16.3488 15.0934 16.3286 15.1245L16.3276 15.1255L16.2563 15.2134C16.2294 15.2406 16.1994 15.2654 16.1675 15.2866L16.1665 15.2856L16.0688 15.3394L15.9614 15.3726C15.9242 15.38 15.8861 15.3824 15.8481 15.3823L15.7358 15.3726C15.699 15.3651 15.6622 15.3539 15.6274 15.3394V15.3384C15.5929 15.324 15.5599 15.3065 15.5288 15.2856V15.2866C15.4969 15.2655 15.4678 15.2406 15.4409 15.2134H15.4399C15.4138 15.1868 15.3905 15.1574 15.3696 15.1265L15.3687 15.1245L15.3159 15.0259C15.3016 14.991 15.2911 14.9544 15.2837 14.9175V14.9165C15.2693 14.8423 15.2693 14.7661 15.2837 14.6919V14.6909L15.3159 14.5825L15.3687 14.4839L15.3696 14.4819L15.4399 14.395H15.4409L15.5288 14.3218V14.3228C15.5599 14.3019 15.5929 14.2844 15.6274 14.27V14.269C15.6622 14.2545 15.699 14.2433 15.7358 14.2358L15.8481 14.2241C15.8861 14.2241 15.924 14.2282 15.9614 14.2358Z" fill="white" stroke="white" stroke-width="0.3"/>
<path d="M14.1064 14.6567C14.1913 14.6523 14.2763 14.6677 14.3555 14.7007C14.4348 14.7338 14.5056 14.7836 14.5625 14.8472L14.6143 14.9146L14.6152 14.9155L14.667 15.0142L14.7002 15.1226H14.6992C14.7144 15.1971 14.7142 15.2736 14.6992 15.3481L14.7002 15.3491L14.667 15.4575C14.6528 15.4918 14.6354 15.5251 14.6152 15.5562L14.6143 15.5571C14.5724 15.6209 14.5185 15.676 14.4551 15.7183H14.4541C14.4232 15.7387 14.3906 15.7566 14.3564 15.771H14.3555L14.248 15.8042C14.2117 15.8115 14.1738 15.8149 14.1367 15.8149C14.0983 15.8151 14.0601 15.8117 14.0225 15.8042H14.0215C13.9849 15.7967 13.9486 15.7853 13.9141 15.771H13.9131C13.8785 15.7563 13.8455 15.7382 13.8145 15.7173L13.7275 15.647L13.7266 15.645C13.6734 15.591 13.6322 15.5268 13.6035 15.4565L13.6025 15.4575L13.5703 15.3491L13.5586 15.2358C13.5589 15.0829 13.6195 14.9357 13.7266 14.8267L13.7285 14.8247L13.8145 14.7544H13.8154L13.9141 14.7007L14.0215 14.6675L14.1064 14.6567Z" fill="white" stroke="white" stroke-width="0.3"/>
<path d="M17.6729 18.5493H17.6738L17.7803 18.5825H17.7812L17.8779 18.6362L17.8789 18.6353C17.9108 18.6564 17.9408 18.6812 17.9678 18.7085L18.0391 18.7954L18.04 18.7964L18.0918 18.896H18.0928C18.1071 18.9308 18.1176 18.9674 18.125 19.0044L18.1357 19.1167L18.125 19.2319V19.2329L18.0928 19.3403C18.0569 19.4283 17.9997 19.5062 17.9268 19.5669C17.8536 19.6277 17.766 19.6701 17.6729 19.689H17.6709C17.6343 19.6957 17.5968 19.6982 17.5596 19.6978L17.5605 19.6987L17.5586 19.6978L17.5576 19.6987V19.6978L17.4473 19.687C17.4108 19.6796 17.3752 19.6681 17.3408 19.6538V19.6548C17.3058 19.6405 17.2718 19.6221 17.2402 19.6011H17.2393L17.1523 19.5288C17.1254 19.5017 17.101 19.472 17.0801 19.4399L17.0811 19.439C17.0607 19.408 17.0425 19.3756 17.0283 19.3413L17.0273 19.3403L16.9951 19.2329C16.9875 19.195 16.9834 19.1564 16.9834 19.1177V19.1167L16.9951 19.0034C17.0025 18.9669 17.0142 18.9314 17.0283 18.897H17.0273C17.0417 18.8618 17.0601 18.8281 17.0811 18.7964H17.0801C17.122 18.7324 17.1766 18.6776 17.2402 18.6353V18.6362C17.2713 18.6154 17.3043 18.5979 17.3389 18.5835V18.5825C17.3736 18.568 17.4104 18.5568 17.4473 18.5493L17.5605 18.5376C17.5982 18.5376 17.6358 18.5418 17.6729 18.5493Z" fill="white" stroke="white" stroke-width="0.3"/>
<path d="M15.9614 18.9805L16.0688 19.0137L16.1665 19.0674L16.1675 19.0664L16.2563 19.1396L16.3276 19.2275L16.3794 19.3262H16.3804C16.3952 19.3616 16.4063 19.3988 16.4136 19.4365H16.4126C16.42 19.4732 16.4242 19.5104 16.4243 19.5479V19.5488L16.4136 19.6641L16.3804 19.7725C16.3662 19.8067 16.348 19.8391 16.3276 19.8701L16.3286 19.8711L16.2563 19.96C16.2297 19.9867 16.2007 20.011 16.1694 20.0322H16.1685L16.0688 20.0859L15.9614 20.1191C15.9242 20.1266 15.8861 20.129 15.8481 20.1289L15.7358 20.1191C15.699 20.1116 15.6622 20.1004 15.6274 20.0859V20.085L15.5278 20.0322C15.465 19.9897 15.4107 19.9353 15.3687 19.8721L15.3677 19.8701L15.3169 19.7725C15.3023 19.7375 15.2909 19.7013 15.2837 19.6641L15.272 19.5488V19.5479L15.2837 19.4346H15.2847C15.2919 19.3976 15.3023 19.361 15.3169 19.3262C15.3309 19.2922 15.3478 19.2594 15.3677 19.2285L15.3687 19.2266L15.4409 19.1396L15.5288 19.0664V19.0674C15.5599 19.0465 15.5929 19.029 15.6274 19.0146V19.0137C15.6622 18.9992 15.699 18.988 15.7358 18.9805L15.8481 18.9688C15.8861 18.9687 15.924 18.9729 15.9614 18.9805Z" fill="white" stroke="white" stroke-width="0.3"/>
<path d="M14.248 19.4131L14.3555 19.4463H14.3564L14.4541 19.499H14.4551L14.543 19.5723L14.6143 19.6602L14.6152 19.6611L14.667 19.7598L14.7002 19.8682L14.7109 19.9805V19.9814L14.707 20.0518C14.6985 20.1223 14.677 20.1908 14.6436 20.2539C14.599 20.338 14.534 20.4098 14.4551 20.4629L14.4541 20.4639C14.4232 20.4843 14.3906 20.5022 14.3564 20.5166H14.3555L14.248 20.5498C14.2118 20.5573 14.1747 20.5613 14.1377 20.5615H14.1367L14.0215 20.5498L13.9141 20.5166C13.8087 20.4725 13.7184 20.3981 13.6553 20.3027C13.5923 20.2075 13.5586 20.0956 13.5586 19.9814L13.5703 19.8682L13.6025 19.7598H13.6035C13.6322 19.6899 13.6735 19.626 13.7266 19.5723L13.7275 19.5713L13.8145 19.5C13.8455 19.4791 13.8785 19.4609 13.9131 19.4463H13.9141L14.0215 19.4131L14.1348 19.4014C14.1727 19.4014 14.2107 19.4055 14.248 19.4131Z" fill="white" stroke="white" stroke-width="0.3"/>
</g>
<defs>
<clipPath id="clip0_2339_578">
<rect width="21" height="24" fill="white"/>
</clipPath>
</defs>
</svg>
