<svg width="107" height="27" viewBox="0 0 107 27" fill="none" xmlns="http://www.w3.org/2000/svg">
<g clip-path="url(#clip0_156_522)">
<path fill-rule="evenodd" clip-rule="evenodd" d="M104.397 0.121582H81.7889C80.7075 0.121582 79.7891 0.976836 79.7891 2.03043V24.7408C79.7891 25.7956 80.3917 26.6509 81.473 26.6509H104.081C105.164 26.6509 106.318 25.7956 106.318 24.7408V2.03043C106.318 0.976836 105.48 0.121582 104.397 0.121582Z" fill="white"/>
<path fill-rule="evenodd" clip-rule="evenodd" d="M104.397 0.121582H81.7889C80.7075 0.121582 79.7891 0.976836 79.7891 2.03043V24.7408C79.7891 25.7956 80.3917 26.6509 81.473 26.6509H104.081C105.164 26.6509 106.318 25.7956 106.318 24.7408V2.03043C106.318 0.976836 105.48 0.121582 104.397 0.121582ZM89.8955 10.228H93.4668V12.0484H93.506C94.0505 11.0668 95.6586 10.0701 97.6471 10.0701C101.464 10.0701 102.528 12.0964 102.528 15.8497V22.861H98.7386V16.5407C98.7386 14.8605 98.0678 13.3862 96.4987 13.3862C94.5937 13.3862 93.6854 14.6761 93.6854 16.7934V22.861H89.8955V10.228ZM83.579 22.861H87.3689V10.228H83.579V22.861ZM87.8426 5.80643C87.8427 6.11745 87.7816 6.42545 87.6627 6.71284C87.5438 7.00022 87.3695 7.26138 87.1496 7.48138C86.9298 7.70138 86.6688 7.87592 86.3814 7.99503C86.0941 8.11414 85.7862 8.17549 85.4752 8.17557C85.1642 8.17565 84.8562 8.11447 84.5688 7.99551C84.2814 7.87655 84.0203 7.70215 83.8004 7.48227C83.5804 7.26239 83.4059 7.00133 83.2869 6.714C83.1678 6.42668 83.1065 6.11871 83.1065 5.8077C83.1064 5.17973 83.3558 4.57745 83.7998 4.13333C84.2438 3.68921 84.8459 3.43962 85.4739 3.43946C86.1019 3.43929 86.7042 3.68856 87.1484 4.13244C87.5926 4.57632 87.8423 5.17846 87.8426 5.80643Z" fill="#0A66C2"/>
<path d="M75.9984 22.8602H72.4611V21.3556H72.4232C71.6362 22.2677 70.2693 23.0181 67.9524 23.0181C64.7942 23.0181 62.0743 20.6418 62.0743 16.5575C62.0743 12.6666 64.755 10.0692 68.0712 10.0692C70.124 10.0692 71.3987 10.7994 72.1706 11.7317H72.2085V3.91064H75.9984V22.8602ZM69.0237 12.9117C66.8571 12.9117 65.6393 14.4567 65.6393 16.5108C65.6393 18.5662 66.8571 20.1756 69.0237 20.1756C71.1928 20.1756 72.4611 18.6079 72.4611 16.5108C72.4611 14.3556 71.1928 12.9117 69.0237 12.9117ZM60.4105 20.825C59.5161 21.9834 57.6742 23.0181 54.7004 23.0181C50.7336 23.0181 48.207 20.3904 48.207 16.2632C48.207 12.5958 50.4949 10.0692 54.8116 10.0692C58.5396 10.0692 60.8388 12.5175 60.8388 16.8241C60.8388 17.2536 60.7693 17.6806 60.7693 17.6806H51.7822L51.8036 18.071C52.0525 19.1599 52.8749 20.4915 54.7623 20.4915C56.4096 20.4915 57.539 19.6059 58.0494 18.9123L60.4105 20.825ZM57.1916 15.2791C57.2169 13.9476 56.2391 12.5958 54.6979 12.5958C52.8636 12.5958 51.8845 14.0284 51.7822 15.2803H57.1916V15.2791Z" fill="#0A66C2"/>
<path d="M48.2066 10.2266H43.785L39.3635 15.2798V3.9101H35.5736V22.8596H39.3635V16.5431L44.0364 22.8596H48.511L43.1534 15.9531L48.2066 10.2266ZM20.414 10.2266H23.9853V12.047H24.0245C24.569 11.0654 26.1772 10.0687 28.1656 10.0687C31.982 10.0687 33.047 12.4904 33.047 15.8483V22.8596H29.2571V16.5393C29.2571 14.6797 28.5863 13.3848 27.0172 13.3848C25.1122 13.3848 24.2039 14.8932 24.2039 16.792V22.8596H20.414V10.2266ZM14.0975 22.8596H17.8874V10.2266H14.0975V22.8596ZM15.9937 8.07899C16.2967 8.08613 16.5982 8.03261 16.8802 7.92158C17.1623 7.81055 17.4193 7.64424 17.6361 7.43244C17.853 7.22063 18.0253 6.96761 18.143 6.68824C18.2606 6.40888 18.3212 6.10881 18.3212 5.80568C18.3212 5.50255 18.2606 5.20248 18.143 4.92312C18.0253 4.64375 17.853 4.39073 17.6361 4.17892C17.4193 3.96712 17.1623 3.80081 16.8802 3.68978C16.5982 3.57874 16.2967 3.52523 15.9937 3.53237C15.4001 3.54637 14.8354 3.79202 14.4205 4.21682C14.0056 4.64162 13.7733 5.21187 13.7733 5.80568C13.7733 6.39948 14.0056 6.96973 14.4205 7.39454C14.8354 7.81934 15.4001 8.06499 15.9937 8.07899ZM3.99107 3.9101H0.201172V22.8596H11.5709V19.0697H3.99107V3.9101Z" fill="#0A66C2"/>
</g>
<defs>
<clipPath id="clip0_156_522">
<rect width="106.117" height="26.5293" fill="white" transform="translate(0.201172 0.121582)"/>
</clipPath>
</defs>
</svg>
