<svg width="197" height="48" viewBox="0 0 197 48" fill="none" xmlns="http://www.w3.org/2000/svg">
<path d="M35.08 22.12C40.161 22.12 44.28 18.001 44.28 12.92C44.28 7.83895 40.161 3.71997 35.08 3.71997C29.999 3.71997 25.88 7.83895 25.88 12.92C25.88 18.001 29.999 22.12 35.08 22.12Z" fill="#636AE8"/>
<path d="M35.08 44.2799C40.161 44.2799 44.28 40.161 44.28 35.0799C44.28 29.9989 40.161 25.8799 35.08 25.8799C29.999 25.8799 25.88 29.9989 25.88 35.0799C25.88 40.161 29.999 44.2799 35.08 44.2799Z" fill="#E8618C"/>
<path d="M4.64001 19.3999C4.64001 10.7623 11.6423 3.75995 20.28 3.75995V28.5999C20.28 37.2376 13.2777 44.2399 4.64001 44.2399V19.3999Z" fill="#22CCB2"/>
<path d="M62.1136 33.2727V42H61.0568V33.2727H62.1136ZM64.0962 42V35.4545H65.0678V36.4773H65.1531C65.2894 36.1278 65.5096 35.8565 65.8136 35.6634C66.1175 35.4673 66.4826 35.3693 66.9087 35.3693C67.3406 35.3693 67.6999 35.4673 67.9869 35.6634C68.2766 35.8565 68.5025 36.1278 68.6644 36.4773H68.7326C68.9002 36.1392 69.1516 35.8707 69.4869 35.6719C69.8221 35.4702 70.2241 35.3693 70.6928 35.3693C71.2781 35.3693 71.7567 35.5526 72.1289 35.919C72.5011 36.2827 72.6871 36.8494 72.6871 37.6193V42H71.6815V37.6193C71.6815 37.1364 71.5494 36.7912 71.2852 36.5838C71.021 36.3764 70.7099 36.2727 70.3519 36.2727C69.8917 36.2727 69.5352 36.4119 69.2823 36.6903C69.0295 36.9659 68.9031 37.3153 68.9031 37.7386V42H67.8803V37.517C67.8803 37.1449 67.7596 36.8452 67.5181 36.6179C67.2766 36.3878 66.9656 36.2727 66.5849 36.2727C66.3235 36.2727 66.0792 36.3423 65.8519 36.4815C65.6275 36.6207 65.4457 36.8139 65.3065 37.0611C65.1701 37.3054 65.1019 37.5881 65.1019 37.9091V42H64.0962ZM74.5259 44.4545V35.4545H75.4975V36.4943H75.6168C75.6907 36.3807 75.793 36.2358 75.9237 36.0597C76.0572 35.8807 76.2475 35.7216 76.4947 35.5824C76.7447 35.4403 77.0827 35.3693 77.5089 35.3693C78.06 35.3693 78.5458 35.5071 78.9663 35.7827C79.3867 36.0582 79.7148 36.4489 79.9506 36.9545C80.1864 37.4602 80.3043 38.0568 80.3043 38.7443C80.3043 39.4375 80.1864 40.0384 79.9506 40.5469C79.7148 41.0526 79.3881 41.4446 78.9705 41.723C78.5529 41.9986 78.0714 42.1364 77.5259 42.1364C77.1055 42.1364 76.7688 42.0668 76.516 41.9276C76.2631 41.7855 76.0685 41.625 75.9322 41.446C75.7958 41.2642 75.6907 41.1136 75.6168 40.9943H75.5316V44.4545H74.5259ZM75.5146 38.7273C75.5146 39.2216 75.587 39.6577 75.7319 40.0355C75.8768 40.4105 76.0884 40.7045 76.3668 40.9176C76.6452 41.1278 76.9862 41.233 77.3896 41.233C77.81 41.233 78.1609 41.1222 78.4421 40.9006C78.7262 40.6761 78.9393 40.375 79.0813 39.9972C79.2262 39.6165 79.2987 39.1932 79.2987 38.7273C79.2987 38.267 79.2276 37.8523 79.0856 37.483C78.9464 37.1108 78.7347 36.8168 78.4506 36.6009C78.1694 36.3821 77.8157 36.2727 77.3896 36.2727C76.9805 36.2727 76.6367 36.3764 76.3583 36.5838C76.0799 36.7884 75.8697 37.0753 75.7276 37.4446C75.5856 37.8111 75.5146 38.2386 75.5146 38.7273ZM84.4975 42.1364C83.9066 42.1364 83.3881 41.9957 82.9421 41.7145C82.4989 41.4332 82.1523 41.0398 81.9023 40.5341C81.6552 40.0284 81.5316 39.4375 81.5316 38.7614C81.5316 38.0795 81.6552 37.4844 81.9023 36.9759C82.1523 36.4673 82.4989 36.0724 82.9421 35.7912C83.3881 35.5099 83.9066 35.3693 84.4975 35.3693C85.0884 35.3693 85.6055 35.5099 86.0487 35.7912C86.4947 36.0724 86.8413 36.4673 87.0884 36.9759C87.3384 37.4844 87.4634 38.0795 87.4634 38.7614C87.4634 39.4375 87.3384 40.0284 87.0884 40.5341C86.8413 41.0398 86.4947 41.4332 86.0487 41.7145C85.6055 41.9957 85.0884 42.1364 84.4975 42.1364ZM84.4975 41.233C84.9464 41.233 85.3157 41.1179 85.6055 40.8878C85.8952 40.6577 86.1097 40.3551 86.2489 39.9801C86.3881 39.6051 86.4577 39.1989 86.4577 38.7614C86.4577 38.3239 86.3881 37.9162 86.2489 37.5384C86.1097 37.1605 85.8952 36.8551 85.6055 36.6222C85.3157 36.3892 84.9464 36.2727 84.4975 36.2727C84.0487 36.2727 83.6793 36.3892 83.3896 36.6222C83.0998 36.8551 82.8853 37.1605 82.7461 37.5384C82.6069 37.9162 82.5373 38.3239 82.5373 38.7614C82.5373 39.1989 82.6069 39.6051 82.7461 39.9801C82.8853 40.3551 83.0998 40.6577 83.3896 40.8878C83.6793 41.1179 84.0487 41.233 84.4975 41.233ZM88.9986 42V35.4545H89.9702V36.4432H90.0384C90.1577 36.1193 90.3736 35.8565 90.6861 35.6548C90.9986 35.4531 91.3509 35.3523 91.7429 35.3523C91.8168 35.3523 91.9091 35.3537 92.0199 35.3565C92.1307 35.3594 92.2145 35.3636 92.2713 35.3693V36.392C92.2372 36.3835 92.1591 36.3707 92.0369 36.3537C91.9176 36.3338 91.7912 36.3239 91.6577 36.3239C91.3395 36.3239 91.0554 36.3906 90.8054 36.5241C90.5582 36.6548 90.3622 36.8366 90.2173 37.0696C90.0753 37.2997 90.0043 37.5625 90.0043 37.858V42H88.9986ZM96.7202 35.4545V36.3068H93.3281V35.4545H96.7202ZM94.3168 33.8864H95.3224V40.125C95.3224 40.4091 95.3636 40.6222 95.446 40.7642C95.5313 40.9034 95.6392 40.9972 95.7699 41.0455C95.9034 41.0909 96.044 41.1136 96.1918 41.1136C96.3026 41.1136 96.3935 41.108 96.4645 41.0966C96.5355 41.0824 96.5923 41.071 96.6349 41.0625L96.8395 41.9659C96.7713 41.9915 96.6761 42.017 96.554 42.0426C96.4318 42.071 96.277 42.0852 96.0895 42.0852C95.8054 42.0852 95.527 42.0241 95.2543 41.902C94.9844 41.7798 94.7599 41.5938 94.581 41.3438C94.4048 41.0938 94.3168 40.7784 94.3168 40.3977V33.8864ZM101.744 42V33.2727H107.011V34.2102H102.801V37.1591H106.739V38.0966H102.801V41.0625H107.08V42H101.744ZM109.53 35.4545L111.098 38.1307L112.666 35.4545H113.825L111.712 38.7273L113.825 42H112.666L111.098 39.4602L109.53 42H108.371L110.45 38.7273L108.371 35.4545H109.53ZM115.26 44.4545V35.4545H116.232V36.4943H116.351C116.425 36.3807 116.527 36.2358 116.658 36.0597C116.792 35.8807 116.982 35.7216 117.229 35.5824C117.479 35.4403 117.817 35.3693 118.243 35.3693C118.794 35.3693 119.28 35.5071 119.701 35.7827C120.121 36.0582 120.449 36.4489 120.685 36.9545C120.921 37.4602 121.039 38.0568 121.039 38.7443C121.039 39.4375 120.921 40.0384 120.685 40.5469C120.449 41.0526 120.123 41.4446 119.705 41.723C119.287 41.9986 118.806 42.1364 118.26 42.1364C117.84 42.1364 117.503 42.0668 117.25 41.9276C116.998 41.7855 116.803 41.625 116.667 41.446C116.53 41.2642 116.425 41.1136 116.351 40.9943H116.266V44.4545H115.26ZM116.249 38.7273C116.249 39.2216 116.321 39.6577 116.466 40.0355C116.611 40.4105 116.823 40.7045 117.101 40.9176C117.38 41.1278 117.721 41.233 118.124 41.233C118.544 41.233 118.895 41.1222 119.176 40.9006C119.461 40.6761 119.674 40.375 119.816 39.9972C119.961 39.6165 120.033 39.1932 120.033 38.7273C120.033 38.267 119.962 37.8523 119.82 37.483C119.681 37.1108 119.469 36.8168 119.185 36.6009C118.904 36.3821 118.55 36.2727 118.124 36.2727C117.715 36.2727 117.371 36.3764 117.093 36.5838C116.814 36.7884 116.604 37.0753 116.462 37.4446C116.32 37.8111 116.249 38.2386 116.249 38.7273ZM125.232 42.1364C124.641 42.1364 124.123 41.9957 123.676 41.7145C123.233 41.4332 122.887 41.0398 122.637 40.5341C122.39 40.0284 122.266 39.4375 122.266 38.7614C122.266 38.0795 122.39 37.4844 122.637 36.9759C122.887 36.4673 123.233 36.0724 123.676 35.7912C124.123 35.5099 124.641 35.3693 125.232 35.3693C125.823 35.3693 126.34 35.5099 126.783 35.7912C127.229 36.0724 127.576 36.4673 127.823 36.9759C128.073 37.4844 128.198 38.0795 128.198 38.7614C128.198 39.4375 128.073 40.0284 127.823 40.5341C127.576 41.0398 127.229 41.4332 126.783 41.7145C126.34 41.9957 125.823 42.1364 125.232 42.1364ZM125.232 41.233C125.681 41.233 126.05 41.1179 126.34 40.8878C126.63 40.6577 126.844 40.3551 126.983 39.9801C127.123 39.6051 127.192 39.1989 127.192 38.7614C127.192 38.3239 127.123 37.9162 126.983 37.5384C126.844 37.1605 126.63 36.8551 126.34 36.6222C126.05 36.3892 125.681 36.2727 125.232 36.2727C124.783 36.2727 124.414 36.3892 124.124 36.6222C123.834 36.8551 123.62 37.1605 123.48 37.5384C123.341 37.9162 123.272 38.3239 123.272 38.7614C123.272 39.1989 123.341 39.6051 123.48 39.9801C123.62 40.3551 123.834 40.6577 124.124 40.8878C124.414 41.1179 124.783 41.233 125.232 41.233ZM129.733 42V35.4545H130.705V36.4432H130.773C130.892 36.1193 131.108 35.8565 131.42 35.6548C131.733 35.4531 132.085 35.3523 132.477 35.3523C132.551 35.3523 132.643 35.3537 132.754 35.3565C132.865 35.3594 132.949 35.3636 133.006 35.3693V36.392C132.972 36.3835 132.893 36.3707 132.771 36.3537C132.652 36.3338 132.526 36.3239 132.392 36.3239C132.074 36.3239 131.79 36.3906 131.54 36.5241C131.293 36.6548 131.097 36.8366 130.952 37.0696C130.81 37.2997 130.739 37.5625 130.739 37.858V42H129.733ZM137.455 35.4545V36.3068L134.062 36.3068V35.4545L137.455 35.4545ZM135.051 33.8864H136.057V40.125C136.057 40.4091 136.098 40.6222 136.18 40.7642C136.266 40.9034 136.374 40.9972 136.504 41.0455C136.638 41.0909 136.778 41.1136 136.926 41.1136C137.037 41.1136 137.128 41.108 137.199 41.0966C137.27 41.0824 137.327 41.071 137.369 41.0625L137.574 41.9659C137.506 41.9915 137.411 42.017 137.288 42.0426C137.166 42.071 137.011 42.0852 136.824 42.0852C136.54 42.0852 136.261 42.0241 135.989 41.902C135.719 41.7798 135.494 41.5938 135.315 41.3438C135.139 41.0938 135.051 40.7784 135.051 40.3977V33.8864ZM142.479 42V33.2727H145.428C146.112 33.2727 146.672 33.3963 147.107 33.6435C147.544 33.8878 147.868 34.2188 148.078 34.6364C148.288 35.054 148.393 35.5199 148.393 36.0341C148.393 36.5483 148.288 37.0156 148.078 37.4361C147.871 37.8565 147.55 38.1918 147.115 38.4418C146.68 38.6889 146.124 38.8125 145.445 38.8125H143.331V37.875H145.411C145.879 37.875 146.256 37.794 146.54 37.6321C146.824 37.4702 147.03 37.2514 147.158 36.9759C147.288 36.6974 147.354 36.3835 147.354 36.0341C147.354 35.6847 147.288 35.3722 147.158 35.0966C147.03 34.821 146.822 34.6051 146.536 34.4489C146.249 34.2898 145.868 34.2102 145.393 34.2102H143.536V42H142.479ZM155.312 35.4545L152.891 42H151.869L149.448 35.4545H150.539L152.346 40.6705H152.414L154.221 35.4545H155.312ZM159.486 35.4545V36.3068L156.094 36.3068V35.4545H159.486ZM157.082 33.8864H158.088V40.125C158.088 40.4091 158.129 40.6222 158.212 40.7642C158.297 40.9034 158.405 40.9972 158.536 41.0455C158.669 41.0909 158.81 41.1136 158.957 41.1136C159.068 41.1136 159.159 41.108 159.23 41.0966C159.301 41.0824 159.358 41.071 159.401 41.0625L159.605 41.9659C159.537 41.9915 159.442 42.017 159.32 42.0426C159.197 42.071 159.043 42.0852 158.855 42.0852C158.571 42.0852 158.293 42.0241 158.02 41.902C157.75 41.7798 157.526 41.5938 157.347 41.3438C157.17 41.0938 157.082 40.7784 157.082 40.3977V33.8864ZM161.732 42.0682C161.521 42.0682 161.341 41.9929 161.19 41.8423C161.04 41.6918 160.964 41.5114 160.964 41.3011C160.964 41.0909 161.04 40.9105 161.19 40.7599C161.341 40.6094 161.521 40.5341 161.732 40.5341C161.942 40.5341 162.122 40.6094 162.273 40.7599C162.423 40.9105 162.499 41.0909 162.499 41.3011C162.499 41.4403 162.463 41.5682 162.392 41.6847C162.324 41.8011 162.232 41.8949 162.115 41.9659C162.001 42.0341 161.874 42.0682 161.732 42.0682ZM167.815 42V33.2727H168.871V41.0625H172.928V42H167.815ZM177.005 35.4545V36.3068H173.613V35.4545H177.005ZM174.602 33.8864H175.608V40.125C175.608 40.4091 175.649 40.6222 175.731 40.7642C175.816 40.9034 175.924 40.9972 176.055 41.0455C176.189 41.0909 176.329 41.1136 176.477 41.1136C176.588 41.1136 176.679 41.108 176.75 41.0966C176.821 41.0824 176.877 41.071 176.92 41.0625L177.125 41.9659C177.056 41.9915 176.961 42.017 176.839 42.0426C176.717 42.071 176.562 42.0852 176.375 42.0852C176.091 42.0852 175.812 42.0241 175.539 41.902C175.27 41.7798 175.045 41.5938 174.866 41.3438C174.69 41.0938 174.602 40.7784 174.602 40.3977V33.8864ZM180.919 42.1364C180.374 42.1364 179.892 41.9986 179.475 41.723C179.057 41.4446 178.73 41.0526 178.495 40.5469C178.259 40.0384 178.141 39.4375 178.141 38.7443C178.141 38.0568 178.259 37.4602 178.495 36.9545C178.73 36.4489 179.059 36.0582 179.479 35.7827C179.9 35.5071 180.385 35.3693 180.936 35.3693C181.363 35.3693 181.699 35.4403 181.946 35.5824C182.196 35.7216 182.387 35.8807 182.517 36.0597C182.651 36.2358 182.755 36.3807 182.828 36.4943H182.914V33.2727H183.919V42H182.948V40.9943H182.828C182.755 41.1136 182.65 41.2642 182.513 41.446C182.377 41.625 182.182 41.7855 181.929 41.9276C181.676 42.0668 181.34 42.1364 180.919 42.1364ZM181.056 41.233C181.459 41.233 181.8 41.1278 182.078 40.9176C182.357 40.7045 182.569 40.4105 182.713 40.0355C182.858 39.6577 182.931 39.2216 182.931 38.7273C182.931 38.2386 182.86 37.8111 182.718 37.4446C182.576 37.0753 182.365 36.7884 182.087 36.5838C181.809 36.3764 181.465 36.2727 181.056 36.2727C180.63 36.2727 180.275 36.3821 179.99 36.6009C179.709 36.8168 179.498 37.1108 179.355 37.483C179.216 37.8523 179.147 38.267 179.147 38.7273C179.147 39.1932 179.218 39.6165 179.36 39.9972C179.505 40.375 179.718 40.6761 179.999 40.9006C180.283 41.1222 180.635 41.233 181.056 41.233ZM186.634 42.0682C186.424 42.0682 186.243 41.9929 186.093 41.8423C185.942 41.6918 185.867 41.5114 185.867 41.3011C185.867 41.0909 185.942 40.9105 186.093 40.7599C186.243 40.6094 186.424 40.5341 186.634 40.5341C186.844 40.5341 187.025 40.6094 187.175 40.7599C187.326 40.9105 187.401 41.0909 187.401 41.3011C187.401 41.4403 187.365 41.5682 187.294 41.6847C187.226 41.8011 187.134 41.8949 187.017 41.9659C186.904 42.0341 186.776 42.0682 186.634 42.0682Z" fill="#565E6C"/>
<path d="M66.894 20.216C65.61 20.216 64.512 19.994 63.6 19.55C62.688 19.094 61.992 18.392 61.512 17.444C61.044 16.496 60.81 15.29 60.81 13.826C60.81 11.666 61.338 10.064 62.394 9.02C63.462 7.964 64.962 7.436 66.894 7.436C67.95 7.436 68.898 7.616 69.738 7.976C70.578 8.336 71.238 8.876 71.718 9.596C72.21 10.316 72.456 11.222 72.456 12.314L69.756 12.314C69.756 11.738 69.636 11.252 69.396 10.856C69.168 10.46 68.838 10.16 68.406 9.956C67.986 9.74 67.494 9.632 66.93 9.632C66.162 9.632 65.526 9.782 65.022 10.082C64.53 10.382 64.164 10.826 63.924 11.414C63.696 11.99 63.582 12.698 63.582 13.538V14.096C63.582 14.96 63.702 15.686 63.942 16.274C64.182 16.85 64.542 17.288 65.022 17.588C65.514 17.876 66.144 18.02 66.912 18.02C67.512 18.02 68.034 17.918 68.478 17.714C68.922 17.51 69.264 17.21 69.504 16.814C69.744 16.418 69.864 15.932 69.864 15.356L72.456 15.356C72.456 16.448 72.216 17.354 71.736 18.074C71.268 18.794 70.614 19.334 69.774 19.694C68.934 20.042 67.974 20.216 66.894 20.216ZM76.8552 20.216C76.5432 20.216 76.2072 20.18 75.8472 20.108C75.4992 20.036 75.1692 19.91 74.8572 19.73C74.5452 19.538 74.2872 19.268 74.0832 18.92C73.8912 18.56 73.7952 18.104 73.7952 17.552C73.7952 16.892 73.9392 16.346 74.2272 15.914C74.5152 15.482 74.9232 15.146 75.4512 14.906C75.9912 14.654 76.6332 14.48 77.3772 14.384C78.1212 14.288 78.9432 14.24 79.8432 14.24V13.538C79.8432 13.262 79.7952 13.022 79.6992 12.818C79.6152 12.614 79.4592 12.452 79.2312 12.332C79.0152 12.212 78.7092 12.152 78.3132 12.152C77.9172 12.152 77.5932 12.2 77.3412 12.296C77.1012 12.392 76.9272 12.518 76.8192 12.674C76.7232 12.818 76.6752 12.98 76.6752 13.16V13.376H74.2452C74.2332 13.316 74.2272 13.262 74.2272 13.214C74.2272 13.154 74.2272 13.082 74.2272 12.998C74.2272 12.446 74.3952 11.972 74.7312 11.576C75.0672 11.168 75.5412 10.856 76.1532 10.64C76.7652 10.424 77.4792 10.316 78.2952 10.316C79.1712 10.316 79.9032 10.43 80.4912 10.658C81.0912 10.886 81.5472 11.222 81.8592 11.666C82.1832 12.11 82.3452 12.668 82.3452 13.34V17.642C82.3452 17.858 82.4052 18.02 82.5252 18.128C82.6572 18.224 82.8012 18.272 82.9572 18.272H83.5512V19.91C83.4312 19.97 83.2452 20.03 82.9932 20.09C82.7412 20.162 82.4352 20.198 82.0752 20.198C81.7272 20.198 81.4152 20.144 81.1392 20.036C80.8752 19.94 80.6532 19.802 80.4732 19.622C80.2932 19.43 80.1672 19.202 80.0952 18.938H79.9692C79.7652 19.19 79.5132 19.412 79.2132 19.604C78.9252 19.796 78.5832 19.946 78.1872 20.054C77.8032 20.162 77.3592 20.216 76.8552 20.216ZM77.7012 18.326C78.0372 18.326 78.3372 18.278 78.6012 18.182C78.8652 18.074 79.0872 17.936 79.2672 17.768C79.4472 17.588 79.5852 17.372 79.6812 17.12C79.7892 16.868 79.8432 16.598 79.8432 16.31V15.788C79.1712 15.788 78.5712 15.836 78.0432 15.932C77.5152 16.016 77.0952 16.166 76.7832 16.382C76.4832 16.598 76.3332 16.898 76.3332 17.282C76.3332 17.498 76.3872 17.684 76.4952 17.84C76.6032 17.996 76.7592 18.116 76.9632 18.2C77.1672 18.284 77.4132 18.326 77.7012 18.326ZM87.6206 20.216C87.0206 20.216 86.5346 20.108 86.1626 19.892C85.7906 19.676 85.5206 19.388 85.3526 19.028C85.1846 18.656 85.1006 18.248 85.1006 17.804V12.458H83.9306V10.532H85.1906L85.6586 7.832L87.6026 7.832V10.532H89.3306V12.458H87.6026V17.39C87.6026 17.678 87.6686 17.9 87.8006 18.056C87.9326 18.2 88.1486 18.272 88.4486 18.272H89.3306V19.928C89.1866 19.976 89.0186 20.018 88.8266 20.054C88.6346 20.102 88.4306 20.138 88.2146 20.162C87.9986 20.198 87.8006 20.216 87.6206 20.216ZM95.2489 20.216C94.2049 20.216 93.3289 20.042 92.6209 19.694C91.9129 19.334 91.3789 18.788 91.0189 18.056C90.6589 17.324 90.4789 16.394 90.4789 15.266C90.4789 14.126 90.6589 13.196 91.0189 12.476C91.3789 11.744 91.9069 11.204 92.6029 10.856C93.3109 10.496 94.1749 10.316 95.1949 10.316C96.1549 10.316 96.9649 10.49 97.6249 10.838C98.2849 11.174 98.7829 11.702 99.1189 12.422C99.4549 13.13 99.6229 14.048 99.6229 15.176V15.824H93.0169C93.0409 16.376 93.1249 16.844 93.2689 17.228C93.4249 17.612 93.6589 17.9 93.9709 18.092C94.2949 18.272 94.7209 18.362 95.2489 18.362C95.5369 18.362 95.7949 18.326 96.0229 18.254C96.2629 18.182 96.4669 18.074 96.6349 17.93C96.8029 17.786 96.9349 17.606 97.0309 17.39C97.1269 17.174 97.1749 16.928 97.1749 16.652H99.6229C99.6229 17.252 99.5149 17.774 99.2989 18.218C99.0829 18.662 98.7829 19.034 98.3989 19.334C98.0149 19.622 97.5529 19.844 97.0129 20C96.4849 20.144 95.8969 20.216 95.2489 20.216ZM93.0529 14.24H97.0489C97.0489 13.88 97.0009 13.568 96.9049 13.304C96.8209 13.04 96.7009 12.824 96.5449 12.656C96.3889 12.488 96.1969 12.368 95.9689 12.296C95.7529 12.212 95.5069 12.17 95.2309 12.17C94.7749 12.17 94.3909 12.248 94.0789 12.404C93.7789 12.548 93.5449 12.776 93.3769 13.088C93.2209 13.388 93.1129 13.772 93.0529 14.24ZM100.381 20L103.819 15.086L100.633 10.532H103.639L105.439 13.376H105.529L107.347 10.532H110.173L106.969 15.068L110.353 20H107.401L105.349 16.778H105.259L103.207 20H100.381ZM121.181 20.216C119.873 20.216 118.745 19.982 117.797 19.514C116.849 19.046 116.123 18.338 115.619 17.39C115.115 16.442 114.863 15.254 114.863 13.826C114.863 12.374 115.115 11.18 115.619 10.244C116.123 9.296 116.849 8.594 117.797 8.138C118.745 7.67 119.873 7.436 121.181 7.436C122.513 7.436 123.647 7.67 124.583 8.138C125.531 8.594 126.257 9.296 126.761 10.244C127.265 11.18 127.517 12.374 127.517 13.826C127.517 15.254 127.265 16.442 126.761 17.39C126.257 18.338 125.531 19.046 124.583 19.514C123.647 19.982 122.513 20.216 121.181 20.216ZM121.181 18.02C121.769 18.02 122.285 17.936 122.729 17.768C123.173 17.6 123.545 17.348 123.845 17.012C124.145 16.676 124.373 16.268 124.529 15.788C124.685 15.296 124.763 14.738 124.763 14.114V13.556C124.763 12.92 124.685 12.356 124.529 11.864C124.373 11.372 124.145 10.964 123.845 10.64C123.545 10.304 123.173 10.052 122.729 9.884C122.285 9.716 121.769 9.632 121.181 9.632C120.605 9.632 120.095 9.716 119.651 9.884C119.207 10.052 118.835 10.304 118.535 10.64C118.235 10.964 118.007 11.372 117.851 11.864C117.707 12.356 117.635 12.92 117.635 13.556V14.114C117.635 14.738 117.707 15.296 117.851 15.788C118.007 16.268 118.235 16.676 118.535 17.012C118.835 17.348 119.207 17.6 119.651 17.768C120.095 17.936 120.605 18.02 121.181 18.02ZM131.926 20L128.398 10.532L131.044 10.532L132.43 14.528C132.502 14.732 132.586 15.002 132.682 15.338C132.79 15.674 132.898 16.028 133.006 16.4C133.114 16.772 133.204 17.108 133.276 17.408H133.366C133.45 17.132 133.54 16.814 133.636 16.454C133.732 16.082 133.828 15.728 133.924 15.392C134.032 15.044 134.122 14.756 134.194 14.528L135.58 10.532L138.1 10.532L134.554 20H131.926ZM143.624 20.216C142.58 20.216 141.704 20.042 140.996 19.694C140.288 19.334 139.754 18.788 139.394 18.056C139.034 17.324 138.854 16.394 138.854 15.266C138.854 14.126 139.034 13.196 139.394 12.476C139.754 11.744 140.282 11.204 140.978 10.856C141.686 10.496 142.55 10.316 143.57 10.316C144.53 10.316 145.34 10.49 146 10.838C146.66 11.174 147.158 11.702 147.494 12.422C147.83 13.13 147.998 14.048 147.998 15.176V15.824L141.392 15.824C141.416 16.376 141.5 16.844 141.644 17.228C141.8 17.612 142.034 17.9 142.346 18.092C142.67 18.272 143.096 18.362 143.624 18.362C143.912 18.362 144.17 18.326 144.398 18.254C144.638 18.182 144.842 18.074 145.01 17.93C145.178 17.786 145.31 17.606 145.406 17.39C145.502 17.174 145.55 16.928 145.55 16.652H147.998C147.998 17.252 147.89 17.774 147.674 18.218C147.458 18.662 147.158 19.034 146.774 19.334C146.39 19.622 145.928 19.844 145.388 20C144.86 20.144 144.272 20.216 143.624 20.216ZM141.428 14.24L145.424 14.24C145.424 13.88 145.376 13.568 145.28 13.304C145.196 13.04 145.076 12.824 144.92 12.656C144.764 12.488 144.572 12.368 144.344 12.296C144.128 12.212 143.882 12.17 143.606 12.17C143.15 12.17 142.766 12.248 142.454 12.404C142.154 12.548 141.92 12.776 141.752 13.088C141.596 13.388 141.488 13.772 141.428 14.24ZM149.834 20V10.532L151.904 10.532L152.102 12.008H152.228C152.348 11.696 152.504 11.414 152.696 11.162C152.888 10.898 153.128 10.688 153.416 10.532C153.704 10.376 154.04 10.298 154.424 10.298C154.628 10.298 154.814 10.322 154.982 10.37C155.15 10.406 155.276 10.442 155.36 10.478V12.746H154.586C154.214 12.746 153.884 12.8 153.596 12.908C153.32 13.004 153.086 13.16 152.894 13.376C152.702 13.592 152.558 13.856 152.462 14.168C152.378 14.48 152.336 14.846 152.336 15.266V20H149.834ZM160.506 20.216C159.846 20.216 159.252 20.144 158.724 20C158.196 19.856 157.746 19.658 157.374 19.406C157.002 19.142 156.714 18.83 156.51 18.47C156.318 18.11 156.222 17.702 156.222 17.246C156.222 17.198 156.222 17.15 156.222 17.102C156.222 17.054 156.228 17.018 156.24 16.994H158.652C158.652 17.018 158.652 17.042 158.652 17.066C158.652 17.09 158.652 17.114 158.652 17.138C158.664 17.438 158.76 17.684 158.94 17.876C159.12 18.056 159.354 18.188 159.642 18.272C159.942 18.356 160.254 18.398 160.578 18.398C160.866 18.398 161.142 18.374 161.406 18.326C161.682 18.266 161.91 18.164 162.09 18.02C162.282 17.876 162.378 17.69 162.378 17.462C162.378 17.174 162.258 16.952 162.018 16.796C161.79 16.64 161.484 16.514 161.1 16.418C160.728 16.322 160.32 16.214 159.876 16.094C159.468 15.998 159.06 15.89 158.652 15.77C158.244 15.638 157.872 15.47 157.536 15.266C157.212 15.062 156.948 14.798 156.744 14.474C156.54 14.138 156.438 13.718 156.438 13.214C156.438 12.722 156.546 12.296 156.762 11.936C156.978 11.564 157.272 11.258 157.644 11.018C158.028 10.778 158.472 10.604 158.976 10.496C159.492 10.376 160.044 10.316 160.632 10.316C161.184 10.316 161.7 10.376 162.18 10.496C162.66 10.604 163.08 10.772 163.44 11C163.8 11.216 164.082 11.492 164.286 11.828C164.49 12.152 164.592 12.518 164.592 12.926C164.592 13.01 164.592 13.088 164.592 13.16C164.592 13.232 164.586 13.28 164.574 13.304H162.18V13.16C162.18 12.944 162.114 12.764 161.982 12.62C161.85 12.464 161.658 12.344 161.406 12.26C161.166 12.176 160.872 12.134 160.524 12.134C160.284 12.134 160.062 12.152 159.858 12.188C159.666 12.224 159.498 12.278 159.354 12.35C159.21 12.422 159.096 12.512 159.012 12.62C158.94 12.716 158.904 12.836 158.904 12.98C158.904 13.184 158.988 13.352 159.156 13.484C159.336 13.604 159.57 13.706 159.858 13.79C160.146 13.874 160.464 13.964 160.812 14.06C161.244 14.18 161.694 14.3 162.162 14.42C162.642 14.528 163.086 14.678 163.494 14.87C163.902 15.062 164.232 15.338 164.484 15.698C164.736 16.046 164.862 16.52 164.862 17.12C164.862 17.696 164.748 18.182 164.52 18.578C164.304 18.974 163.998 19.292 163.602 19.532C163.206 19.772 162.744 19.946 162.216 20.054C161.688 20.162 161.118 20.216 160.506 20.216ZM170.975 20.216C169.931 20.216 169.055 20.042 168.347 19.694C167.639 19.334 167.105 18.788 166.745 18.056C166.385 17.324 166.205 16.394 166.205 15.266C166.205 14.126 166.385 13.196 166.745 12.476C167.105 11.744 167.633 11.204 168.329 10.856C169.037 10.496 169.901 10.316 170.921 10.316C171.881 10.316 172.691 10.49 173.351 10.838C174.011 11.174 174.509 11.702 174.845 12.422C175.181 13.13 175.349 14.048 175.349 15.176V15.824L168.743 15.824C168.767 16.376 168.851 16.844 168.995 17.228C169.151 17.612 169.385 17.9 169.697 18.092C170.021 18.272 170.447 18.362 170.975 18.362C171.263 18.362 171.521 18.326 171.749 18.254C171.989 18.182 172.193 18.074 172.361 17.93C172.529 17.786 172.661 17.606 172.757 17.39C172.853 17.174 172.901 16.928 172.901 16.652H175.349C175.349 17.252 175.241 17.774 175.025 18.218C174.809 18.662 174.509 19.034 174.125 19.334C173.741 19.622 173.279 19.844 172.739 20C172.211 20.144 171.623 20.216 170.975 20.216ZM168.779 14.24L172.775 14.24C172.775 13.88 172.727 13.568 172.631 13.304C172.547 13.04 172.427 12.824 172.271 12.656C172.115 12.488 171.923 12.368 171.695 12.296C171.479 12.212 171.233 12.17 170.957 12.17C170.501 12.17 170.117 12.248 169.805 12.404C169.505 12.548 169.271 12.776 169.103 13.088C168.947 13.388 168.839 13.772 168.779 14.24ZM179.687 20.216C179.375 20.216 179.039 20.18 178.679 20.108C178.331 20.036 178.001 19.91 177.689 19.73C177.377 19.538 177.119 19.268 176.915 18.92C176.723 18.56 176.627 18.104 176.627 17.552C176.627 16.892 176.771 16.346 177.059 15.914C177.347 15.482 177.755 15.146 178.283 14.906C178.823 14.654 179.465 14.48 180.209 14.384C180.953 14.288 181.775 14.24 182.675 14.24V13.538C182.675 13.262 182.627 13.022 182.531 12.818C182.447 12.614 182.291 12.452 182.063 12.332C181.847 12.212 181.541 12.152 181.145 12.152C180.749 12.152 180.425 12.2 180.173 12.296C179.933 12.392 179.759 12.518 179.651 12.674C179.555 12.818 179.507 12.98 179.507 13.16V13.376H177.077C177.065 13.316 177.059 13.262 177.059 13.214C177.059 13.154 177.059 13.082 177.059 12.998C177.059 12.446 177.227 11.972 177.563 11.576C177.899 11.168 178.373 10.856 178.985 10.64C179.597 10.424 180.311 10.316 181.127 10.316C182.003 10.316 182.735 10.43 183.323 10.658C183.923 10.886 184.379 11.222 184.691 11.666C185.015 12.11 185.177 12.668 185.177 13.34V17.642C185.177 17.858 185.237 18.02 185.357 18.128C185.489 18.224 185.633 18.272 185.789 18.272H186.383V19.91C186.263 19.97 186.077 20.03 185.825 20.09C185.573 20.162 185.267 20.198 184.907 20.198C184.559 20.198 184.247 20.144 183.971 20.036C183.707 19.94 183.485 19.802 183.305 19.622C183.125 19.43 182.999 19.202 182.927 18.938H182.801C182.597 19.19 182.345 19.412 182.045 19.604C181.757 19.796 181.415 19.946 181.019 20.054C180.635 20.162 180.191 20.216 179.687 20.216ZM180.533 18.326C180.869 18.326 181.169 18.278 181.433 18.182C181.697 18.074 181.919 17.936 182.099 17.768C182.279 17.588 182.417 17.372 182.513 17.12C182.621 16.868 182.675 16.598 182.675 16.31V15.788C182.003 15.788 181.403 15.836 180.875 15.932C180.347 16.016 179.927 16.166 179.615 16.382C179.315 16.598 179.165 16.898 179.165 17.282C179.165 17.498 179.219 17.684 179.327 17.84C179.435 17.996 179.591 18.116 179.795 18.2C179.999 18.284 180.245 18.326 180.533 18.326ZM191.461 20.216C190.801 20.216 190.207 20.144 189.679 20C189.151 19.856 188.701 19.658 188.329 19.406C187.957 19.142 187.669 18.83 187.465 18.47C187.273 18.11 187.177 17.702 187.177 17.246C187.177 17.198 187.177 17.15 187.177 17.102C187.177 17.054 187.183 17.018 187.195 16.994H189.607C189.607 17.018 189.607 17.042 189.607 17.066C189.607 17.09 189.607 17.114 189.607 17.138C189.619 17.438 189.715 17.684 189.895 17.876C190.075 18.056 190.309 18.188 190.597 18.272C190.897 18.356 191.209 18.398 191.533 18.398C191.821 18.398 192.097 18.374 192.361 18.326C192.637 18.266 192.865 18.164 193.045 18.02C193.237 17.876 193.333 17.69 193.333 17.462C193.333 17.174 193.213 16.952 192.973 16.796C192.745 16.64 192.439 16.514 192.055 16.418C191.683 16.322 191.275 16.214 190.831 16.094C190.423 15.998 190.015 15.89 189.607 15.77C189.199 15.638 188.827 15.47 188.491 15.266C188.167 15.062 187.903 14.798 187.699 14.474C187.495 14.138 187.393 13.718 187.393 13.214C187.393 12.722 187.501 12.296 187.717 11.936C187.933 11.564 188.227 11.258 188.599 11.018C188.983 10.778 189.427 10.604 189.931 10.496C190.447 10.376 190.999 10.316 191.587 10.316C192.139 10.316 192.655 10.376 193.135 10.496C193.615 10.604 194.035 10.772 194.395 11C194.755 11.216 195.037 11.492 195.241 11.828C195.445 12.152 195.547 12.518 195.547 12.926C195.547 13.01 195.547 13.088 195.547 13.16C195.547 13.232 195.541 13.28 195.529 13.304L193.135 13.304V13.16C193.135 12.944 193.069 12.764 192.937 12.62C192.805 12.464 192.613 12.344 192.361 12.26C192.121 12.176 191.827 12.134 191.479 12.134C191.239 12.134 191.017 12.152 190.813 12.188C190.621 12.224 190.453 12.278 190.309 12.35C190.165 12.422 190.051 12.512 189.967 12.62C189.895 12.716 189.859 12.836 189.859 12.98C189.859 13.184 189.943 13.352 190.111 13.484C190.291 13.604 190.525 13.706 190.813 13.79C191.101 13.874 191.419 13.964 191.767 14.06C192.199 14.18 192.649 14.3 193.117 14.42C193.597 14.528 194.041 14.678 194.449 14.87C194.857 15.062 195.187 15.338 195.439 15.698C195.691 16.046 195.817 16.52 195.817 17.12C195.817 17.696 195.703 18.182 195.475 18.578C195.259 18.974 194.953 19.292 194.557 19.532C194.161 19.772 193.699 19.946 193.171 20.054C192.643 20.162 192.073 20.216 191.461 20.216Z" fill="#171A1F"/>
</svg>
