<svg width="28" height="28" viewBox="0 0 28 28" fill="none" xmlns="http://www.w3.org/2000/svg">
<path fill-rule="evenodd" clip-rule="evenodd" d="M18.3747 3.50016V25.6668C18.3747 26.1498 17.9827 26.5418 17.4997 26.5418H3.49967C2.95834 26.5418 2.43917 26.3272 2.05651 25.9433C1.67267 25.5607 1.45801 25.0415 1.45801 24.5002V3.50016C1.45801 2.95883 1.67267 2.43966 2.05651 2.057C2.43917 1.67316 2.95834 1.4585 3.49967 1.4585H16.333C16.8743 1.4585 17.3935 1.67316 17.7762 2.057C18.16 2.43966 18.3747 2.95883 18.3747 3.50016ZM16.6247 3.50016C16.6247 3.42316 16.5943 3.3485 16.5395 3.29366C16.4847 3.23883 16.41 3.2085 16.333 3.2085H3.49967C3.42267 3.2085 3.34801 3.23883 3.29317 3.29366C3.23834 3.3485 3.20801 3.42316 3.20801 3.50016V24.5002C3.20801 24.5772 3.23834 24.6518 3.29317 24.7067C3.34801 24.7615 3.42267 24.7918 3.49967 24.7918H16.6247V3.50016Z" fill="#2B86AA"/>
<path fill-rule="evenodd" clip-rule="evenodd" d="M13.7083 18.0833V25.6667C13.7083 26.1497 13.3163 26.5417 12.8333 26.5417H7C6.517 26.5417 6.125 26.1497 6.125 25.6667V18.0833C6.125 17.696 6.279 17.3262 6.552 17.052C6.82617 16.779 7.19717 16.625 7.58333 16.625H12.25C12.6362 16.625 13.0072 16.779 13.2813 17.052C13.5543 17.3262 13.7083 17.696 13.7083 18.0833ZM7.875 18.375V24.7917H11.9583V18.375H7.875Z" fill="#2B86AA"/>
<path fill-rule="evenodd" clip-rule="evenodd" d="M26.5417 10.5002V24.5002C26.5417 25.6283 25.627 26.5418 24.5 26.5418H17.5C17.017 26.5418 16.625 26.1498 16.625 25.6668V9.3335C16.625 8.8505 17.017 8.4585 17.5 8.4585H24.5C25.627 8.4585 26.5417 9.372 26.5417 10.5002ZM24.7917 10.5002C24.7917 10.3392 24.661 10.2085 24.5 10.2085H18.375V24.7918H24.5C24.661 24.7918 24.7917 24.6612 24.7917 24.5002V10.5002Z" fill="#2B86AA"/>
<path fill-rule="evenodd" clip-rule="evenodd" d="M5.54102 5.25H7.29102V7H5.54102V5.25Z" fill="#2B86AA"/>
<path fill-rule="evenodd" clip-rule="evenodd" d="M5.54102 9.3335H7.29102V11.0835H5.54102V9.3335Z" fill="#2B86AA"/>
<path fill-rule="evenodd" clip-rule="evenodd" d="M5.54102 13.417H7.29102V15.167H5.54102V13.417Z" fill="#2B86AA"/>
<path fill-rule="evenodd" clip-rule="evenodd" d="M9.04102 5.25H10.791V7H9.04102V5.25Z" fill="#2B86AA"/>
<path fill-rule="evenodd" clip-rule="evenodd" d="M9.04102 9.3335H10.791V11.0835H9.04102V9.3335Z" fill="#2B86AA"/>
<path fill-rule="evenodd" clip-rule="evenodd" d="M9.04102 13.417H10.791V15.167H9.04102V13.417Z" fill="#2B86AA"/>
<path fill-rule="evenodd" clip-rule="evenodd" d="M12.541 5.25H14.291V7H12.541V5.25Z" fill="#2B86AA"/>
<path fill-rule="evenodd" clip-rule="evenodd" d="M20.708 12.542H22.458V14.292H20.708V12.542Z" fill="#2B86AA"/>
<path fill-rule="evenodd" clip-rule="evenodd" d="M20.708 16.625H22.458V18.375H20.708V16.625Z" fill="#2B86AA"/>
<path fill-rule="evenodd" clip-rule="evenodd" d="M20.708 20.7085H22.458V22.4585H20.708V20.7085Z" fill="#2B86AA"/>
<path fill-rule="evenodd" clip-rule="evenodd" d="M12.541 9.3335H14.291V11.0835H12.541V9.3335Z" fill="#2B86AA"/>
<path fill-rule="evenodd" clip-rule="evenodd" d="M12.541 13.417H14.291V15.167H12.541V13.417Z" fill="#2B86AA"/>
</svg>
