<svg width="41" height="42" viewBox="0 0 41 42" fill="none" xmlns="http://www.w3.org/2000/svg">
<path d="M31.08 19.12C36.161 19.12 40.28 15.001 40.28 9.91997C40.28 4.83895 36.161 0.719971 31.08 0.719971C25.999 0.719971 21.88 4.83895 21.88 9.91997C21.88 15.001 25.999 19.12 31.08 19.12Z" fill="#636AE8"/>
<path d="M31.08 41.2799C36.161 41.2799 40.28 37.161 40.28 32.0799C40.28 26.9989 36.161 22.8799 31.08 22.8799C25.999 22.8799 21.88 26.9989 21.88 32.0799C21.88 37.161 25.999 41.2799 31.08 41.2799Z" fill="#E8618C"/>
<path d="M0.640015 16.3999C0.640015 7.76225 7.64232 0.759949 16.28 0.759949V25.5999C16.28 34.2376 9.27771 41.2399 0.640015 41.2399V16.3999Z" fill="#22CCB2"/>
</svg>
